# xmcd
#
# Track frame offsets:
#	150
#	16409
#	34566
#	56522
#	76266
#	93426
#	106884
#	121328
#	141299
#	158666
#	178632
#
# Disc length: 2610 seconds
#
# Revision: 1
# Processed by: cddbd v1.5.2PL0 Copyright (c) Steve Scherf et al.
# Submitted via: EZCDAudioConverter 3.1.5.1
#
DISCID=800a300b
DTITLE=Άλκηστις Πρωτοψάλτη - Να σε βλέπω να γελάς
DYEAR=2011
DGENRE=
TTITLE0=Κάθε φορά που με κοιτάζεις
TTITLE1=Όλα αυτά που φοβάμαι (How You Remind Me)
TTITLE2=Να μείνεις εδώ κοντά μου
TTITLE3=Ο άγγελός μου
TTITLE4=Χωρίς εσένα
TTITLE5=Χαρτοκιβώτια νουνού
TTITLE6=Ole ole ola (Ole ole)
TTITLE7=Προλαβαίνω
TTITLE8=Συναντησέ με
TTITLE9=Καλημέρα
TTITLE10=Κύκνειο άσμα
EXTD=
EXTT0=
EXTT1=
EXTT2=
EXTT3=
EXTT4=
EXTT5=
EXTT6=
EXTT7=
EXTT8=
EXTT9=
EXTT10=
PLAYORDER=
